<?xml version="1.0" encoding="utf-8"?>
<!-- Generator: Adobe Illustrator 28.3.0, SVG Export Plug-In . SVG Version: 6.00 Build 0)  -->
<svg version="1.1" id="_x32_" xmlns="http://www.w3.org/2000/svg" xmlns:xlink="http://www.w3.org/1999/xlink" x="0px" y="0px"
	 viewBox="0 0 512 512" style="enable-background:new 0 0 512 512;" xml:space="preserve">
<style type="text/css">
	.st0{fill:#FBC600;}
</style>
<path class="st0" d="M512,256l-63.3-51.6l29-76.4l-80.6-13.1L384,34.3l-76.4,29L256,0l-51.6,63.3l-76.3-29l-13.1,80.6L34.3,128
	l29,76.4L0,256l63.3,51.6l-29,76.4l80.6,13.1l13.1,80.6l76.3-29L256,512l51.6-63.3l76.4,29l13.1-80.6l80.6-13.1l-29-76.4L512,256z
	 M190.2,341.3l-21.9,4.3c-1.5,0.3-2.5-0.1-3.5-1.2l-59.9-69.9l-0.9,0.2l15.5,78.7c0.2,1.1-0.4,2-1.5,2.2l-20.8,4.1
	c-1.1,0.2-2-0.4-2.2-1.5L71,236.5c-0.2-1.1,0.4-2,1.5-2.2l22.1-4.4c1.3-0.3,2.5,0.1,3.5,1.2l59.7,70.1l0.9-0.2l-15.5-78.8
	c-0.2-1.1,0.4-2,1.5-2.2l20.8-4.1c1.1-0.2,2,0.4,2.2,1.5l23.9,121.6C191.9,340.2,191.3,341.1,190.2,341.3z M298.2,320.1l-80.3,15.8
	c-1.1,0.2-2-0.4-2.2-1.5l-23.9-121.6c-0.2-1.1,0.4-2,1.5-2.2l80.3-15.8c1.1-0.2,2,0.4,2.2,1.5l3.9,19.7c0.2,1.1-0.4,2-1.5,2.2
	l-54,10.6c-0.7,0.1-1,0.6-0.9,1.3l4.9,24.9c0.2,0.7,0.6,1,1.3,0.9l45-8.8c1.1-0.2,2,0.4,2.2,1.5l3.8,19.5c0.2,1.1-0.4,2-1.5,2.2
	l-45,8.8c-0.7,0.2-1,0.6-0.9,1.3l5.1,26c0.1,0.7,0.6,1,1.3,0.9l54-10.6c1.1-0.2,2,0.4,2.2,1.5l3.9,19.7
	C299.9,319,299.3,319.9,298.2,320.1z M432.7,291.7c0,1.1-0.8,2.1-2,2.3l-18.4,3.6c-1.3,0.3-2.2-0.3-2.8-1.4l-37.1-73.6l-0.4,0.1
	l-6.6,82.2c-0.2,1.2-0.8,2.1-2,2.3l-18.4,3.6c-1.1,0.2-2-0.4-2.6-1.4l-56.3-115.2c-0.4-1.1-0.2-1.9,1.1-2.1l23.8-4.7
	c1.3-0.3,2.2,0.3,2.6,1.4L347,264l0.4-0.1l5.9-82.8c0.2-1.2,0.8-2.1,2-2.3l16-3.1c1.1-0.2,2,0.4,2.6,1.4l37.5,74.3l0.4-0.1l1.8-82
	c-0.1-1.3,0.6-2,1.8-2.3l23.6-4.6c1.3-0.3,1.8,0.4,1.8,1.5L432.7,291.7z"/>
</svg>
