<svg width="521" height="62" viewBox="0 0 521 62" fill="none" xmlns="http://www.w3.org/2000/svg">
<g clip-path="url(#clip0_5_2)">
<rect width="521" height="62" fill="white"/>
<path d="M32.3502 20.3463C31.4363 20.6276 30.3818 20.6276 29.4679 20.1354C27.6402 19.2212 26.8669 16.9709 27.7808 15.1426C28.2729 14.2284 29.0462 13.5955 29.96 13.2439L35.865 11.2749C34.3185 7.96983 31.7878 5.08666 28.4135 3.04735C19.4857 -2.15642 7.88652 0.797069 2.61419 9.79818C-2.65815 18.7993 0.294362 30.2616 9.22218 35.5357C18.15 40.8098 29.6788 37.8563 35.0215 28.9255C36.9195 25.6908 37.7631 22.1044 37.6225 18.5883L32.3502 20.3463Z" fill="#DE0014"/>
<path d="M55.3375 1.50028C50.2058 -1.52353 43.6681 0.164179 40.6453 5.29762C37.6225 10.4311 39.3799 16.9709 44.4414 19.9947L45.7067 20.6276C45.6364 19.7838 45.777 18.8696 46.2691 18.0961C47.4642 16.1271 49.9949 15.4239 52.0335 16.6193C53.5098 17.4632 54.2128 19.0806 54.0722 20.6276C56.1108 19.7838 57.9385 18.2367 59.2039 16.1974C62.1564 11.1343 60.4693 4.52409 55.3375 1.50028Z" fill="#0068B8"/>
<path d="M32.6313 50.3032C30.663 49.1077 29.96 46.5761 31.1551 44.5368C31.5768 43.8336 32.1392 43.3414 32.7719 42.9897C32.3501 42.6381 31.9283 42.2865 31.4363 42.0053C26.3045 38.9814 19.7668 40.6692 16.744 45.8026C13.7212 50.936 15.4084 57.4759 20.5401 60.4997C25.6718 63.5235 32.2095 61.8358 35.2323 56.7024C36.4274 54.7334 36.8492 52.4831 36.7086 50.3735C35.4432 51.0064 33.8967 51.0064 32.6313 50.3032Z" fill="#00873F"/>
<path d="M49.5028 50.7954C56.9571 50.7954 63 44.7505 63 37.2937C63 29.837 56.9571 23.7921 49.5028 23.7921C42.0485 23.7921 36.0056 29.837 36.0056 37.2937C36.0056 44.7505 42.0485 50.7954 49.5028 50.7954Z" fill="#FFC700"/>
<path d="M220.463 15.9945H187.707C186.08 15.9945 184.665 14.6503 184.665 12.9523C184.665 11.2544 186.009 9.91019 187.707 9.91019H220.463C222.09 9.91019 223.505 11.2544 223.505 12.9523C223.505 14.6503 222.161 15.9945 220.463 15.9945ZM193.862 53.137C192.305 53.137 190.961 51.8636 190.891 50.3071C190.82 48.6799 192.093 47.265 193.72 47.1235C201.998 46.699 215.44 43.7276 217.279 29.0828C217.279 28.9413 217.279 28.5876 216.926 28.5876H187.778C186.15 28.5876 184.735 27.2434 184.735 25.5454C184.735 23.8475 186.08 22.5033 187.778 22.5033H220.534C222.161 22.5033 223.576 23.8475 223.576 25.5454C223.576 41.8881 212.539 52.2173 194.145 53.137H193.862ZM233.976 47.831C233.622 47.831 233.198 47.7602 232.844 47.6187C231.287 46.982 230.58 45.2133 231.217 43.6568L235.391 33.5399C236.028 31.9835 237.796 31.276 239.353 31.9127C240.909 32.5494 241.617 34.3181 240.98 35.8746L236.806 45.9915C236.24 47.1235 235.179 47.831 233.976 47.831ZM271.897 47.9724C270.694 47.9724 269.562 47.265 269.137 46.0623L264.963 35.7331C264.327 34.1766 265.105 32.408 266.591 31.842C268.147 31.2052 269.916 31.9835 270.482 33.4692L274.656 43.7983C275.293 45.3548 274.514 47.1235 273.029 47.6895C272.675 47.9017 272.25 47.9724 271.897 47.9724Z" fill="black"/>
<path d="M272.321 14.8625C274.04 14.8625 275.434 13.4688 275.434 11.7496C275.434 10.0304 274.04 8.63673 272.321 8.63673C270.602 8.63673 269.208 10.0304 269.208 11.7496C269.208 13.4688 270.602 14.8625 272.321 14.8625Z" fill="black"/>
<path d="M264.185 15.3578C265.318 15.3578 266.237 14.4392 266.237 13.3061C266.237 12.173 265.318 11.2544 264.185 11.2544C263.052 11.2544 262.133 12.173 262.133 13.3061C262.133 14.4392 263.052 15.3578 264.185 15.3578Z" fill="black"/>
<path d="M272.958 20.3808H255.129V11.0422C255.129 9.41495 253.785 8 252.087 8C250.389 8 249.045 9.34421 249.045 11.0422V20.3808H232.632C231.004 20.3808 229.59 21.7251 229.59 23.423C229.59 25.1209 230.934 26.4651 232.632 26.4651H249.045V51.9343C249.045 53.5615 250.389 54.9765 252.087 54.9765C253.785 54.9765 255.129 53.6323 255.129 51.9343V26.4651H272.958C274.585 26.4651 276 25.1209 276 23.423C276 21.7251 274.656 20.3808 272.958 20.3808ZM118.303 8.70748H86.1839C82.8588 8.70748 80.1704 11.3959 80.1704 14.721V47.3357C80.1704 50.6609 82.8588 53.3493 86.1839 53.3493H118.303C121.629 53.3493 124.317 50.6609 124.317 47.3357V14.721C124.317 11.3959 121.629 8.70748 118.303 8.70748ZM86.1839 46.9112V15.287C86.1839 15.004 86.3962 14.721 86.6084 14.721H93.5417V25.6869C93.5417 27.3849 93.5417 31.4175 90.2873 34.5304C89.2261 35.5916 89.1553 37.2895 90.2166 38.3508C90.7825 38.9167 91.49 39.1997 92.1975 39.1997C92.905 39.1997 93.5417 38.9167 94.0369 38.4215C98.9185 33.7522 98.9185 27.8801 98.9185 25.6869V14.721H117.667C118.091 14.721 118.303 15.1455 118.303 15.4285V34.9549C118.233 35.2379 118.091 35.3794 117.95 35.5209C117.525 36.1576 116.959 36.1576 116.535 36.2991H110.663C109.955 36.2991 109.814 36.2283 109.814 35.4501V22.5033C109.814 21.0176 108.611 19.8149 107.125 19.8149C105.64 19.8149 104.437 21.0176 104.437 22.5033V35.4501C104.437 39.1997 106.913 41.6759 110.663 41.6759H116.322C116.959 41.6759 117.525 41.6052 118.303 41.1099V46.7697C118.303 46.982 118.162 47.3357 117.808 47.3357H86.6084C86.3254 47.3357 86.1839 47.1942 86.1839 46.9112Z" fill="black"/>
<path d="M137.83 17.4802C139.822 17.4802 141.438 15.8648 141.438 13.8721C141.438 11.8793 139.822 10.2639 137.83 10.2639C135.837 10.2639 134.222 11.8793 134.222 13.8721C134.222 15.8648 135.837 17.4802 137.83 17.4802Z" fill="black"/>
<path d="M170.161 17.4802C172.154 17.4802 173.77 15.8648 173.77 13.8721C173.77 11.8793 172.154 10.2639 170.161 10.2639C168.169 10.2639 166.553 11.8793 166.553 13.8721C166.553 15.8648 168.169 17.4802 170.161 17.4802Z" fill="black"/>
<path d="M175.255 32.0542C175.043 32.0542 174.902 32.0542 174.689 31.9835C164.997 30.0733 157.993 24.9087 154.951 21.0883C154.738 20.8053 154.526 20.5223 154.385 20.3808C154.243 20.2394 154.031 20.2394 153.889 20.4516C153.819 20.5931 153.748 20.6638 153.677 20.8053C153.607 20.8761 153.536 20.9468 153.465 21.0883C147.027 29.2243 136.91 31.2052 134.009 31.559C132.382 31.7712 130.826 30.6393 130.614 29.0121C130.401 27.3849 131.533 25.8284 133.16 25.6162C134.858 25.4039 143.49 23.9182 148.654 17.4802C149.857 15.6408 151.413 13.7306 153.748 13.5891C156.366 13.4476 158.134 15.4285 159.62 17.3387C161.389 19.6026 167.119 24.4135 175.751 26.0407C177.378 26.3237 178.439 27.9509 178.156 29.578C177.873 31.0637 176.67 32.0542 175.255 32.0542Z" fill="black"/>
<path d="M161.672 54.1275H146.673C141.721 54.1275 137.618 50.0949 137.618 45.0718V40.7562C137.618 35.8038 141.65 31.7005 146.673 31.7005H161.672C166.624 31.7005 170.727 35.7331 170.727 40.7562V45.0718C170.727 50.0949 166.695 54.1275 161.672 54.1275ZM146.673 37.7848C145.046 37.7848 143.631 39.129 143.631 40.8269V45.1425C143.631 46.7697 144.975 48.1847 146.673 48.1847H161.672C163.299 48.1847 164.714 46.8405 164.714 45.1425V40.8269C164.714 39.1997 163.37 37.7848 161.672 37.7848H146.673Z" fill="black"/>
<path fill-rule="evenodd" clip-rule="evenodd" d="M469.729 8.09089L469.761 8.06719C470.435 7.56145 471.197 7.23129 472.014 7.28965C472.848 7.34926 473.534 7.79853 474.073 8.42733L474.122 8.48439L474.162 8.54812C474.596 9.24331 474.839 10.0077 474.726 10.8016C474.612 11.5967 474.165 12.2553 473.549 12.7852L473.543 12.7905L457.859 26.6649L477.269 48.1182L477.31 48.1797C477.802 48.9178 478.111 49.7161 478.056 50.5411C477.999 51.3951 477.565 52.1032 476.918 52.6577L476.861 52.7066L476.797 52.7464C476.071 53.2 475.269 53.4147 474.436 53.2482C473.623 53.0856 472.933 52.5897 472.352 51.9257L472.35 51.9241L453.395 30.5233L442.884 39.6967V50C442.884 50.9053 442.68 51.7708 442.097 52.4129C441.497 53.0731 440.658 53.3203 439.775 53.3203C438.892 53.3203 438.053 53.0731 437.453 52.4129C436.869 51.7708 436.665 50.9053 436.665 50V11.3984C436.665 10.4932 436.869 9.62761 437.453 8.98553C438.053 8.32537 438.892 8.07812 439.775 8.07812C440.658 8.07812 441.497 8.32537 442.097 8.98553C442.68 9.62761 442.884 10.4932 442.884 11.3984V31.7542L469.729 8.09089ZM489.765 44.8491L490.589 44.2719C492.709 46.6401 496.306 47.9453 501.655 47.9453C506.904 47.9453 510.369 46.8326 512.339 44.8632C513.412 43.7896 513.944 42.499 513.944 40.9297C513.944 39.3604 513.412 38.0698 512.339 36.9962C510.787 35.4448 508.999 34.491 506.955 34.1079L506.944 34.1056L495.356 31.788L495.349 31.7866C491.415 31.057 488.259 29.5808 485.972 27.293C483.96 25.2819 482.937 22.8496 482.937 20.0469C482.937 17.2975 484.316 14.6675 486.815 12.1679C489.631 9.35186 494.328 8.07812 500.601 8.07812C507.311 8.07812 512.306 9.56971 515.262 12.8342C516.83 14.5459 517.89 16.1056 518.235 17.484L518.241 17.5071L518.245 17.5304C518.41 18.356 518.397 19.1705 518.067 19.8859C517.725 20.6272 517.108 21.1209 516.35 21.4051L516.297 21.4251L516.242 21.4389C515.527 21.6175 514.806 21.6175 514.138 21.3391C513.467 21.0596 512.964 20.5471 512.6 19.9102L512.519 19.7693L512.487 19.6102C512.458 19.4642 512.31 19.1109 511.897 18.4922C511.506 17.9048 510.936 17.1653 510.177 16.2681C508.642 14.4999 505.648 13.4531 500.812 13.4531C495.942 13.4531 492.924 14.3721 491.394 15.9024C489.794 17.5018 489.155 18.8788 489.155 20.0469C489.155 21.3608 489.564 22.3615 490.339 23.1366C491.709 24.5063 493.688 25.4912 496.366 26.0269L496.367 26.0272L508.187 28.3491C511.707 29.0825 514.57 30.4928 516.706 32.6288C519.001 34.9236 520.163 37.7083 520.163 40.9297C520.163 44.0044 519.076 46.6503 516.917 48.8087C513.82 51.9063 508.631 53.3203 501.655 53.3203C494.355 53.3203 488.932 51.5343 485.703 47.6914L485.704 47.6928L486.527 47.1167L486.526 47.1156L485.703 47.6914C484.113 45.8118 482.927 43.9711 482.174 42.1685C481.834 41.3979 481.698 40.5678 482.001 39.7797C482.306 38.9878 482.968 38.4613 483.741 38.1174L483.799 38.0917L483.86 38.0734C484.705 37.82 485.559 37.7796 486.334 38.1121C487.12 38.4488 487.662 39.0972 488.014 39.8907L488.025 39.9141L488.034 39.9379C488.7 41.6706 489.556 43.1091 490.589 44.2719L489.765 44.8488L489.765 44.8491ZM321.862 29.7535C321.915 29.7633 321.968 29.7733 322.021 29.7834C321.969 29.7734 321.917 29.7635 321.864 29.7538L321.862 29.7535ZM392.816 30.5937C392.816 25.0206 394.374 20.8018 397.375 17.8009C400.263 14.913 403.937 13.4531 408.48 13.4531C413.023 13.4531 416.698 14.913 419.585 17.8009C422.586 20.8018 424.144 25.0206 424.144 30.5937C424.144 36.3155 422.582 40.601 419.585 43.5976C416.698 46.4855 413.023 47.9453 408.48 47.9453C403.937 47.9453 400.263 46.4855 397.375 43.5976C394.378 40.601 392.816 36.3155 392.816 30.5937ZM430.785 30.5937C430.785 24.0183 428.582 18.4849 424.164 14.0663C420.15 10.0531 414.889 8.07812 408.48 8.07812C402.071 8.07812 396.81 10.0531 392.796 14.0663C388.378 18.4849 386.175 24.0183 386.175 30.5937C386.175 37.3031 388.373 42.9091 392.796 47.3321C396.81 51.3454 402.071 53.3203 408.48 53.3203C414.889 53.3203 420.15 51.3454 424.164 47.3321C428.587 42.9091 430.785 37.3031 430.785 30.5937ZM348.994 17.8009C345.993 20.8018 344.435 25.0206 344.435 30.5937C344.435 36.3155 345.997 40.601 348.994 43.5976C351.882 46.4855 355.556 47.9453 360.099 47.9453C364.642 47.9453 368.317 46.4855 371.205 43.5976C374.201 40.601 375.763 36.3155 375.763 30.5937C375.763 25.0206 374.206 20.8018 371.205 17.8009C368.317 14.913 364.642 13.4531 360.099 13.4531C355.556 13.4531 351.882 14.913 348.994 17.8009ZM375.783 14.0663C380.202 18.4849 382.404 24.0183 382.404 30.5937C382.404 37.3031 380.206 42.9091 375.783 47.3321C371.77 51.3454 366.508 53.3203 360.099 53.3203C353.69 53.3203 348.429 51.3454 344.416 47.3321C339.993 42.9091 337.795 37.3031 337.795 30.5937C337.795 24.0183 339.997 18.4849 344.416 14.0663C348.429 10.0531 353.69 8.07812 360.099 8.07812C366.508 8.07812 371.77 10.0531 375.783 14.0663ZM302.383 47.8906V32.2266H316.148C320.494 32.2266 323.57 33.3123 325.566 35.3087C326.896 36.6384 327.594 38.4076 327.594 40.7188C327.594 43.0959 327 44.695 325.988 45.707C324.547 47.1481 322.378 47.9453 319.312 47.9453H302.438C302.417 47.9453 302.4 47.9448 302.384 47.9439C302.383 47.9284 302.383 47.9106 302.383 47.8906ZM329.512 12.1679C326.732 9.38777 322.71 8.07812 317.625 8.07812H300.961C299.541 8.07812 298.293 8.43374 297.406 9.32024C296.52 10.2067 296.164 11.4552 296.164 12.875V48.5234C296.164 49.9432 296.52 51.1917 297.406 52.0782C298.293 52.9647 299.541 53.3203 300.961 53.3203H318.469C323.797 53.3203 327.908 52.0996 330.566 49.4415C332.88 47.1278 334.023 44.1937 334.023 40.7188C334.023 37.5414 333.031 34.8826 330.988 32.8398C329.641 31.4926 327.848 30.4556 325.651 29.6994C327.199 29.1137 328.561 28.244 329.723 27.0821C331.621 25.1839 332.547 22.7384 332.547 19.8359C332.547 16.7839 331.545 14.201 329.512 12.1679ZM302.383 13.5078C302.383 13.4878 302.383 13.4701 302.384 13.4545C302.4 13.4537 302.417 13.4531 302.438 13.4531H317.414C320.772 13.4531 323.157 14.2564 324.737 15.7055C325.772 16.749 326.328 18.1602 326.328 20.0469C326.328 22.1035 325.755 23.5805 324.723 24.6132C323.274 26.0622 321.168 26.8516 318.258 26.8516H302.383V13.5078Z" fill="black"/>
</g>
<defs>
<clipPath id="clip0_5_2">
<rect width="521" height="62" fill="white"/>
</clipPath>
</defs>
</svg>
