<svg width="439" height="62" viewBox="0 0 439 62" fill="none" xmlns="http://www.w3.org/2000/svg">
<g clip-path="url(#clip0_1_2)">
<rect width="439" height="62" fill="white"/>
<path d="M32.3731 20.2765C31.4836 20.5304 30.4669 20.5304 29.4502 20.1496C27.6711 19.2613 26.9086 16.977 27.7982 15.2004C28.3065 14.312 29.069 13.6775 29.9586 13.2968L35.9315 11.3932C34.4065 8.0937 31.8648 5.17489 28.4336 3.14441C19.5378 -2.18558 7.97332 0.860129 2.63586 9.74346C-2.7016 18.6268 0.348379 30.1751 9.24415 35.5051C18.1399 40.8351 29.7044 37.7894 35.0419 28.9061C36.9481 25.7334 37.8377 22.0532 37.5835 18.6268L32.3731 20.2765Z" fill="#DF0012"/>
<path d="M55.3751 1.49466C50.2918 -1.55106 43.6835 0.225608 40.6335 5.3018C37.5835 10.378 39.3627 16.977 44.446 20.0227C44.8272 20.2766 45.3355 20.5304 45.7168 20.6573C45.5897 19.7689 45.8439 18.8806 46.2251 18.1192C47.3689 16.0887 49.9105 15.4542 51.9438 16.5963C53.3417 17.4846 54.1042 19.0075 53.9772 20.6573C56.0105 19.7689 57.9167 18.2461 59.0604 16.2156C62.1104 11.0125 60.4584 4.41346 55.3751 1.49466Z" fill="#0068B6"/>
<path d="M32.6273 50.2261C30.594 49.0839 29.9586 46.5458 31.1023 44.5154C31.4836 43.8808 32.119 43.3732 32.7544 42.9925C32.3731 42.6118 31.8648 42.358 31.3565 41.9773C26.2732 38.9315 19.6649 40.7082 16.6149 45.7844C13.5649 50.8606 15.3441 57.4596 20.4274 60.5053C25.5107 63.5511 32.119 61.7744 35.1689 56.6982C36.3127 54.6677 36.821 52.5103 36.5669 50.353C35.4231 50.8606 33.8981 50.8606 32.6273 50.2261Z" fill="#009144"/>
<path d="M49.5293 50.6068C56.9689 50.6068 63 44.5842 63 37.1549C63 29.7256 56.9689 23.703 49.5293 23.703C42.0896 23.703 36.0585 29.7256 36.0585 37.1549C36.0585 44.5842 42.0896 50.6068 49.5293 50.6068Z" fill="#FBC600"/>
<path d="M96.2069 4.79653L85.4427 41.6208H92.5778V27.0994H99.9589V41.7434H103.526V48.3607H99.9589V56.326H92.5778V48.3607H78V42.1723L89.0102 4.79653H96.2684H96.2069Z" fill="black"/>
<path d="M110.231 16.1931C110.231 11.659 111.707 8.84046 113.43 7.06358C116.013 4.4289 119.273 4.06127 121.672 4.06127C124.993 4.06127 127.946 4.79653 130.222 7.61503C131.821 9.57572 132.867 12.5168 132.867 15.8867V18.5827C132.867 20.3595 132.805 21.4624 132.19 23.3006C131.513 25.5676 131.021 26.2416 130.345 27.4058L118.658 49.2185H132.805V56.2035H110.17V49.4636L123.21 25.5064C123.702 24.4647 124.563 22.8104 124.809 21.7075C125.116 20.6046 125.424 18.5214 125.424 17.296V16.1931C125.424 14.4775 124.993 13.252 124.317 12.4555C123.886 11.9653 122.964 11.2913 121.426 11.2913C119.642 11.2913 118.719 12.1491 118.166 13.0682C117.489 14.2324 117.489 15.6416 117.489 17.2347V19.1954H110.108V16.1931H110.231Z" fill="black"/>
<path d="M163.806 21.7075C163.806 24.526 163.191 26.7931 160.361 29.5503C164.298 32.4301 163.806 35.4936 163.806 38.6798V45.1746C163.806 46.5838 163.744 57 152.427 57C141.109 57 141.047 46.5838 141.047 45.1746V38.6798C141.047 35.4936 140.617 32.4301 144.492 29.5503C141.601 26.7318 141.047 24.4647 141.047 21.7075V15.8867C141.047 14.4775 141.109 4.06127 152.427 4.06127C163.744 4.06127 163.806 14.4775 163.806 15.8867V21.7075ZM156.425 16.9283C156.425 15.0289 156.179 11.2913 152.427 11.2913C148.675 11.2913 148.429 15.0289 148.429 16.9283V20.8497C148.429 22.7491 148.675 26.4867 152.427 26.4867C156.179 26.4867 156.425 22.7491 156.425 20.8497V16.9283ZM156.425 37.5156C156.425 35.6162 156.179 31.8786 152.427 31.8786C148.675 31.8786 148.429 35.6162 148.429 37.5156V44.1329C148.429 46.0324 148.675 49.7699 152.427 49.7699C156.179 49.7699 156.425 46.0324 156.425 44.1329V37.5156Z" fill="black"/>
<path d="M179.737 4.79653V49.2798H195.36V56.2647H172.356V4.79653H179.737Z" fill="black"/>
<path d="M218.919 56.2647L216.458 45.2358H206.986L204.525 56.2647H197.144L208.523 4.79653H215.043L226.3 56.2647H218.919ZM211.599 19.1341L207.785 38.6798H215.597L211.599 19.1341Z" fill="black"/>
<path d="M241.431 4.79653C243.645 4.79653 247.951 5.04162 251.15 7.30867C255.824 10.6173 255.886 16.1318 255.886 19.1341C255.886 22.504 255.578 24.8936 253.671 27.1607C252.687 28.3249 251.58 29.0601 250.842 29.489C252.81 30.3468 253.733 31.6335 254.41 32.7364C255.886 35.3098 255.886 36.7191 255.886 39.2312V43.1526C255.886 45.2971 255.886 50.5665 251.457 53.8751C249.858 55.1006 247.09 56.326 242.661 56.326H231.467V4.79653H241.431ZM238.848 26.1191H242.415C244.937 26.1191 246.413 25.0775 247.151 24.2197C248.013 23.178 248.566 21.4012 248.566 19.8081V16.622C248.566 15.274 247.951 13.9873 247.151 13.0682C246.29 12.2104 244.814 11.3526 242.354 11.3526H238.909V26.0578L238.848 26.1191ZM238.848 49.6474H242.169C243.276 49.6474 245.614 49.5249 247.213 47.3803C248.443 45.6647 248.566 43.0301 248.566 42.1723V39.7214C248.566 37.2092 248.197 35.4324 246.598 34.0844C245.429 33.104 244.322 32.7364 242.661 32.7364H238.909V49.6474H238.848Z" fill="black"/>
<path d="M291.192 4.79653C293.407 4.79653 297.712 5.04162 300.911 7.30867C305.586 10.6173 305.647 16.1318 305.647 19.1341C305.647 22.504 305.34 24.8936 303.433 27.1607C302.449 28.3249 301.341 29.0601 300.603 29.489C302.572 30.3468 303.494 31.6335 304.171 32.7364C305.647 35.3098 305.647 36.7191 305.647 39.2312V43.1526C305.647 45.2971 305.647 50.5665 301.218 53.8751C299.619 55.1006 296.851 56.326 292.423 56.326H281.228V4.79653H291.192ZM288.609 26.1191H292.177C294.698 26.1191 296.175 25.0775 296.913 24.2197C297.774 23.178 298.327 21.4012 298.327 19.8081V16.622C298.327 15.274 297.712 13.9873 296.913 13.0682C296.052 12.2104 294.575 11.3526 292.115 11.3526H288.67V26.0578L288.609 26.1191ZM288.609 49.6474H291.93C293.038 49.6474 295.375 49.5249 296.974 47.3803C298.204 45.6647 298.327 43.0301 298.327 42.1723V39.7214C298.327 37.2092 297.958 35.4324 296.359 34.0844C295.191 33.104 294.083 32.7364 292.423 32.7364H288.67V49.6474H288.609Z" fill="black"/>
<path d="M313.459 18.3376C313.459 14.4162 313.766 10.6786 317.272 7.36994C319.487 5.28671 322.501 4.06127 326.376 4.06127C330.251 4.06127 333.265 5.28671 335.479 7.36994C339.047 10.6786 339.293 14.4162 339.293 18.3376V42.7237C339.293 46.6451 338.985 50.3827 335.479 53.6913C333.265 55.7746 330.251 57 326.376 57C322.501 57 319.487 55.7746 317.272 53.6913C313.705 50.3827 313.459 46.6451 313.459 42.7237V18.3376ZM331.912 17.2347C331.912 15.7029 331.789 14.1711 330.374 12.7618C329.574 11.9653 328.221 11.2913 326.376 11.2913C324.531 11.2913 323.177 11.9653 322.378 12.7618C320.963 14.1711 320.84 15.7029 320.84 17.2347V43.8266C320.84 45.3584 320.963 46.8902 322.378 48.2994C323.177 49.0959 324.531 49.7699 326.376 49.7699C328.221 49.7699 329.574 49.0959 330.374 48.2994C331.789 46.8902 331.912 45.3584 331.912 43.8266V17.2347Z" fill="black"/>
<path d="M347.535 18.3376C347.535 14.4162 347.843 10.6786 351.349 7.36994C353.563 5.28671 356.577 4.06127 360.452 4.06127C364.327 4.06127 367.341 5.28671 369.556 7.36994C373.123 10.6786 373.369 14.4162 373.369 18.3376V42.7237C373.369 46.6451 373.062 50.3827 369.556 53.6913C367.341 55.7746 364.327 57 360.452 57C356.577 57 353.563 55.7746 351.349 53.6913C347.781 50.3827 347.535 46.6451 347.535 42.7237V18.3376ZM365.988 17.2347C365.988 15.7029 365.865 14.1711 364.45 12.7618C363.651 11.9653 362.297 11.2913 360.452 11.2913C358.607 11.2913 357.254 11.9653 356.454 12.7618C355.039 14.1711 354.916 15.7029 354.916 17.2347V43.8266C354.916 45.3584 355.039 46.8902 356.454 48.2994C357.254 49.0959 358.607 49.7699 360.452 49.7699C362.297 49.7699 363.651 49.0959 364.45 48.2994C365.865 46.8902 365.988 45.3584 365.988 43.8266V17.2347Z" fill="black"/>
<path d="M389.362 4.79653V29.5503L401.049 4.79653H408.799L398.342 25.874L410.706 56.2035H402.648L393.852 33.2266L389.3 41.1919V56.2647H381.919V4.79653H389.3H389.362Z" fill="black"/>
<path d="M431.373 17.6636C431.373 16.5607 431.311 14.4162 430.143 12.9457C429.466 12.1491 428.359 11.2301 426.206 11.2301C425.16 11.2301 423.746 11.4751 422.577 12.6393C421.162 14.1098 421.039 16.1931 421.039 17.8474C421.039 19.2566 421.285 21.8301 422.208 23.2393C423.008 24.4647 424.484 25.0775 425.591 25.5064L430.081 27.0994C432.295 27.896 434.879 28.8763 436.786 31.511C438.754 34.2069 439 37.148 439 40.3954V42.1723C439 47.3803 437.585 51.363 435.432 53.5688C433.526 55.5295 430.143 56.9387 425.837 56.9387C420.609 56.9387 417.226 54.7942 415.503 52.4659C413.166 49.2798 413.166 44.4393 413.166 43.7653V42.0497H420.547V43.459C420.547 44.6231 420.67 46.7064 421.716 47.9931C422.946 49.5249 424.791 49.7087 425.775 49.7087C428.605 49.7087 429.835 48.6058 430.45 47.8705C431.557 46.4613 431.619 44.3168 431.619 42.785V40.8855C431.619 39.1087 431.373 36.9029 430.45 35.6162C429.466 34.2682 427.744 33.6555 426.883 33.3491L421.47 31.4497C418.825 30.4694 416.18 29.1827 414.704 25.6902C413.658 23.3618 413.597 20.7884 413.597 18.215V16.7445C413.597 12.4555 415.319 9.26936 417.41 7.18613C419.871 4.8578 422.946 4 426.329 4C433.71 4 438.631 8.77919 438.631 17.296V19.0116H431.25V17.6023L431.373 17.6636Z" fill="black"/>
</g>
<defs>
<clipPath id="clip0_1_2">
<rect width="439" height="62" fill="white"/>
</clipPath>
</defs>
</svg>
